<?xml version="1.0" encoding="iso-8859-1"?>
<!-- Generator: Adobe Illustrator 19.0.0, SVG Export Plug-In . SVG Version: 6.00 Build 0)  -->
<svg version="1.1" id="Layer_1" xmlns="http://www.w3.org/2000/svg" xmlns:xlink="http://www.w3.org/1999/xlink" x="0px" y="0px"
	 viewBox="0 0 512 512" style="enable-background:new 0 0 512 512;" xml:space="preserve">
<g>
	<g>
		<g>
			<path d="M501.231,460.327l8.173-24.518l-8.173-24.519l8.173-24.519l-8.173-24.519l8.173-24.519l-8.173-24.518l8.173-24.52
				l-8.173-24.518l8.173-24.519l-8.173-24.523l8.173-24.515l-8.173-24.517l8.173-24.522l-8.173-24.515l8.173-24.522l-7.974-23.925
				l8.173-16.342l-10.968-32.905H0l10.57,31.709L2.397,67.412l8.372,25.122l-8.173,24.523l8.173,24.515l-8.173,24.522l8.173,24.517
				l-8.173,24.516l8.173,24.523l-8.173,24.52l8.173,24.518l-8.173,24.52l8.173,24.518l-8.173,24.52l8.173,24.519l-8.173,24.519
				l8.173,24.519l-8.173,24.519l10.769,32.307H512L501.231,460.327z M492.986,190.612l-8.173,24.515l8.173,24.523l-8.173,24.519
				l8.173,24.518l-8.173,24.52l8.173,24.518l-8.173,24.519l8.173,24.519l-8.173,24.519l8.173,24.519l-8.173,24.518l5.577,16.731
				h-30.867v-5.078h-15.576v5.078H67.015v-5.078H51.439v5.078H24.592l-5.577-16.731l8.173-24.518l-8.173-24.519l8.173-24.519
				l-8.173-24.519l8.173-24.519l-8.173-24.518l8.173-24.52l-8.173-24.518l8.173-24.519l-8.173-24.523l8.173-24.515l-8.173-24.517
				l8.173-24.522l-8.173-24.515l8.173-24.522L19.214,68.61l8.173-16.342l-5.777-17.33h29.829v5.078h15.576v-5.078h376.932v5.078
				h15.576v-5.078h27.886l5.378,16.133l-8.173,16.342l8.372,25.122l-8.173,24.522l8.173,24.515l-8.173,24.522L492.986,190.612z"/>
			<rect x="51.441" y="272.614" width="15.576" height="16.614"/>
			<rect x="51.441" y="447.062" width="15.576" height="16.614"/>
			<rect x="51.441" y="297.535" width="15.576" height="16.614"/>
			<rect x="51.441" y="422.141" width="15.576" height="16.614"/>
			<rect x="51.441" y="397.22" width="15.576" height="16.614"/>
			<rect x="51.441" y="347.378" width="15.576" height="16.614"/>
			<rect x="51.441" y="322.456" width="15.576" height="16.614"/>
			<rect x="51.441" y="48.322" width="15.576" height="16.614"/>
			<rect x="51.441" y="197.851" width="15.576" height="16.614"/>
			<rect x="51.441" y="172.93" width="15.576" height="16.614"/>
			<rect x="51.441" y="222.772" width="15.576" height="16.614"/>
			<rect x="51.441" y="247.693" width="15.576" height="16.614"/>
			<rect x="51.441" y="148.008" width="15.576" height="16.614"/>
			<rect x="51.441" y="73.245" width="15.576" height="16.614"/>
			<rect x="51.441" y="372.299" width="15.576" height="16.614"/>
			<rect x="51.441" y="98.166" width="15.576" height="16.614"/>
			<rect x="51.441" y="123.087" width="15.576" height="16.614"/>
			<rect x="443.95" y="347.378" width="15.576" height="16.614"/>
			<rect x="443.95" y="197.851" width="15.576" height="16.614"/>
			<rect x="443.95" y="247.693" width="15.576" height="16.614"/>
			<rect x="443.95" y="148.008" width="15.576" height="16.614"/>
			<rect x="443.95" y="222.772" width="15.576" height="16.614"/>
			<rect x="443.95" y="172.93" width="15.576" height="16.614"/>
			<rect x="443.95" y="73.245" width="15.576" height="16.614"/>
			<rect x="443.95" y="48.322" width="15.576" height="16.614"/>
			<rect x="443.95" y="98.166" width="15.576" height="16.614"/>
			<rect x="443.95" y="123.087" width="15.576" height="16.614"/>
			<rect x="443.95" y="397.22" width="15.576" height="16.614"/>
			<rect x="443.95" y="447.062" width="15.576" height="16.614"/>
			<rect x="443.95" y="272.614" width="15.576" height="16.614"/>
			<rect x="443.95" y="422.141" width="15.576" height="16.614"/>
			<rect x="443.95" y="372.299" width="15.576" height="16.614"/>
			<rect x="443.95" y="297.535" width="15.576" height="16.614"/>
			<rect x="443.95" y="322.456" width="15.576" height="16.614"/>
			<path d="M256,76.574c-94.428,0-171.251,76.823-171.251,171.251S161.572,419.075,256,419.075s171.251-76.823,171.251-171.251
				S350.429,76.574,256,76.574z M256,403.499c-85.84,0-155.675-69.835-155.675-155.675S170.161,92.15,256,92.15
				s155.675,69.835,155.675,155.675S341.84,403.499,256,403.499z"/>
			<path d="M256,378.98v15.576c74.426,0,137.075-55.662,145.728-129.476l-15.47-1.813C378.525,329.234,322.527,378.98,256,378.98z"
				/>
			<path d="M348.583,154.857c24.874,24.79,38.574,57.527,38.574,92.832h15.576c0-39.458-15.326-76.164-43.154-103.899
				L348.583,154.857z"/>
			<path d="M124.844,247.825c0-72.319,58.837-131.156,131.156-131.156c27.959,0,54.642,8.675,77.16,25.086l9.174-12.588
				c-25.202-18.367-55.055-28.074-86.334-28.074c-80.908,0-146.732,65.824-146.732,146.732c0,50.93,25.814,97.475,69.053,124.505
				l8.256-13.207C147.923,334.958,124.844,293.35,124.844,247.825z"/>
			<path d="M186.947,377.322c8.258,4.412,16.974,8.04,25.908,10.785l4.574-14.888c-7.979-2.451-15.765-5.692-23.142-9.634
				L186.947,377.322z"/>
			<path d="M329.154,260.722v0.018c20.588-20.588,20.575-54.064-0.03-74.669v0.075c-9.967-9.96-23.211-15.294-37.3-15.294
				c-0.005,0-0.012,0-0.019,0c-13.389,0-26.02,4.813-35.799,13.856c-20.685-19.107-53.059-18.765-73.147,1.32
				c-20.588,20.588-20.588,54.087,0,74.676l67.58,67.58l5.591,5.543L329.154,260.722z M193.874,249.689
				c-14.515-14.516-14.515-38.135,0-52.648c7.257-7.257,16.791-10.886,26.324-10.886c9.533,0,19.067,3.629,26.324,10.886
				l9.487,9.486l9.485-9.486c14.516-14.516,38.126-14.522,52.632-0.016v-0.001c14.516,14.533,14.525,38.153,0.016,52.665
				l-62.134,62.133L193.874,249.689z"/>
			<path d="M295.459,195.882v15.576c5.192,0,9.023,4.043,9.023,9.235h15.576C320.057,207.194,308.958,195.882,295.459,195.882z"/>
			<rect x="288.192" y="444.985" width="123.567" height="15.576"/>
			<rect x="264.31" y="444.985" width="16.614" height="15.576"/>
			<polygon points="100.243,68.051 150.086,68.051 150.086,52.475 84.668,52.475 84.668,84.665 100.243,84.665 			"/>
			<rect x="165.663" y="52.477" width="16.614" height="15.576"/>
		</g>
	</g>
</g>
<g>
</g>
<g>
</g>
<g>
</g>
<g>
</g>
<g>
</g>
<g>
</g>
<g>
</g>
<g>
</g>
<g>
</g>
<g>
</g>
<g>
</g>
<g>
</g>
<g>
</g>
<g>
</g>
<g>
</g>
</svg>
